<svg width="400" height="400" viewBox="-285 -180 570 440" xmlns="http://www.w3.org/2000/svg">
    <g transform="rotate(-30 0 0) translate(200,0) rotate(30 0 0)">
        <circle cx="0" cy="0" r="20" fill="black"/>
        <text transform="translate(40, 0)" fill="black" font-size="60"
              text-anchor="start" dominant-baseline="auto"
              font-family="Source Sans Pro, Helvetica, sans-serif">
            A
        </text>
    </g>
    <g transform="rotate(-150 0 0) translate(200,0) rotate(150 0 0)">
        <circle cx="0" cy="0" r="20" fill="black"/>
        <text transform="translate(-40, 0)" fill="black" font-size="60"
              text-anchor="end" dominant-baseline="auto"
              font-family="Source Sans Pro, Helvetica, sans-serif">
            B
        </text>
    </g>
    <g transform="rotate(-270 0 0) translate(200,0) rotate(270 0 0)">
        <circle cx="0" cy="0" r="20" fill="black"/>
        <text transform="translate(0, 40)" fill="black" font-size="60"
              text-anchor="middle" dominant-baseline="hanging"
              font-family="Source Sans Pro, Helvetica, sans-serif">
            C
        </text>
    </g>

    <path d="M 139.83 -213.81
            A 200 150 -30 0 1 255.08 -14.19
            L 115.25 228.00
            A 200 150 -270 0 1 -115.25 228.00
            L -255.08 -14.19
            A 200 150 -150 0 1 -139.83 -213.81
            Z" stroke="black" fill="none" stroke-width="4"/>
</svg>